<svg width="29" height="35" viewBox="0 0 29 35" fill="none" xmlns="http://www.w3.org/2000/svg">
<path d="M28.3746 9.49639L28.3736 9.46915C28.3593 9.13296 28.3497 8.77728 28.3439 8.38155C28.317 6.45173 26.8706 4.85544 25.0508 4.74756C21.2566 4.52299 18.3215 3.21081 15.8136 0.618237L15.7922 0.596608C14.9742 -0.198869 13.7403 -0.198869 12.922 0.596608L12.9006 0.618237C10.3928 3.21081 7.45765 4.52299 3.66348 4.74783C1.84395 4.85544 0.397281 6.45173 0.370342 8.38181C0.364803 8.77488 0.354984 9.13056 0.340633 9.46915L0.339122 9.53244C0.265354 13.6359 0.17371 18.7428 1.78453 23.3781C2.67025 25.9272 4.01168 28.143 5.7713 29.9644C7.77538 32.0386 10.4003 33.6854 13.5731 34.8587C13.6763 34.8969 13.7836 34.9279 13.8929 34.9511C14.047 34.9837 14.202 35 14.3571 35C14.5122 35 14.6676 34.9837 14.8214 34.9511C14.9307 34.9279 15.0387 34.8966 15.1424 34.8582C18.3114 33.6827 20.9336 32.0352 22.9359 29.9612C24.6948 28.1392 26.0362 25.9229 26.9227 23.3733C28.5395 18.7241 28.4482 13.6076 28.3746 9.49639ZM25.1059 22.6627C23.407 27.5483 19.9389 30.9035 14.5034 32.9196C14.484 32.9265 14.4634 32.9326 14.442 32.9372C14.3858 32.9489 14.3287 32.9489 14.2718 32.9369C14.2506 32.9324 14.23 32.9265 14.2109 32.9196C8.76962 30.9072 5.29923 27.5539 3.60155 22.6681C2.11687 18.3954 2.20096 13.7074 2.27523 9.57169L2.27573 9.54873C2.29084 9.19331 2.30091 8.82107 2.30645 8.41199C2.31853 7.55509 2.96205 6.84613 3.77149 6.79834C5.91858 6.67123 7.80484 6.23117 9.53802 5.45305C11.2689 4.676 12.8062 3.58065 14.2373 2.10452C14.3101 2.03936 14.4045 2.03909 14.477 2.10452C15.9083 3.58065 17.4456 4.676 19.1762 5.45305C20.9094 6.23117 22.7957 6.67123 24.943 6.79834C25.7525 6.84613 26.396 7.55509 26.4078 8.41225C26.4136 8.82348 26.4237 9.19571 26.4388 9.54873C26.5128 13.6893 26.5949 18.3809 25.1059 22.6627Z" fill="#041E42"/>
<path d="M14.3569 8.77832C9.822 8.77832 6.13281 12.6914 6.13281 17.5008C6.13281 22.3105 9.822 26.2236 14.3569 26.2236C18.8915 26.2236 22.5809 22.3105 22.5809 17.5008C22.5809 12.6914 18.8915 8.77832 14.3569 8.77832ZM14.3569 24.1696C10.8898 24.1696 8.06918 21.1781 8.06918 17.5008C8.06918 13.8236 10.8898 10.832 14.3569 10.832C17.8238 10.832 20.6443 13.8236 20.6443 17.5008C20.6443 21.1781 17.8238 24.1696 14.3569 24.1696Z" fill="#041E42"/>
<path d="M16.7204 14.7922L12.9005 18.8436L11.8637 17.7439C11.4856 17.3429 10.8725 17.3429 10.4944 17.7439C10.1165 18.145 10.1165 18.7952 10.4944 19.196L12.216 21.022C12.4051 21.2225 12.6528 21.3227 12.9005 21.3227C13.1483 21.3227 13.396 21.2225 13.5851 21.022L18.0898 16.2443C18.4677 15.8432 18.4677 15.193 18.0898 14.7922C17.7116 14.3909 17.0985 14.3909 16.7204 14.7922Z" fill="#041E42"/>
</svg>
