<svg width="25" height="22" viewBox="0 0 25 22" fill="none" xmlns="http://www.w3.org/2000/svg">
<path d="M16.3973 3.55371C19.2427 3.55371 21.5487 5.68841 21.5487 8.67701C21.5487 14.6542 14.5241 18.0698 12.1826 19.3506C9.841 18.0698 2.81641 14.6542 2.81641 8.67701C2.81641 5.68841 5.15794 3.55371 7.96777 3.55371C9.70987 3.55371 11.2459 4.40759 12.1826 5.26147C13.1191 4.40759 14.6552 3.55371 16.3973 3.55371ZM13.0574 16.8777C13.8824 16.403 14.6271 15.9308 15.324 15.4253C18.116 13.4016 19.6754 11.19 19.6754 8.67701C19.6754 6.66184 18.2359 5.26147 16.3973 5.26147C15.3894 5.26147 14.2992 5.74818 13.5069 6.46886L12.1826 7.67625L10.8582 6.46886C10.0658 5.74818 8.97557 5.26147 7.96777 5.26147C6.15075 5.26147 4.68964 6.6755 4.68964 8.67701C4.68964 11.1909 6.25003 13.4016 9.0402 15.4253C9.73797 15.9308 10.4826 16.403 11.3077 16.8769C11.5877 17.0383 11.865 17.1928 12.1826 17.3653C12.5 17.1928 12.7773 17.0383 13.0574 16.8777Z" fill="white"/>
</svg>
