<svg width="23" height="20" viewBox="0 0 23 20" fill="none" xmlns="http://www.w3.org/2000/svg">
<path d="M11.4691 9.16634C12.3494 9.16634 13.2099 8.922 13.9418 8.46409C14.6737 8.00629 15.2441 7.35555 15.581 6.59419C15.9178 5.83283 16.006 4.99505 15.8342 4.1868C15.6625 3.37855 15.2386 2.63611 14.6162 2.0534C13.9938 1.47068 13.2008 1.07384 12.3374 0.913073C11.474 0.752298 10.5792 0.834815 9.76597 1.15017C8.9527 1.46554 8.25761 1.9996 7.76857 2.6848C7.27953 3.37001 7.01851 4.17559 7.01851 4.99967C7.01992 6.10434 7.48928 7.16337 8.32363 7.94449C9.15797 8.72559 10.2892 9.165 11.4691 9.16634ZM11.4691 2.49967C11.9972 2.49967 12.5136 2.6463 12.9527 2.921C13.3919 3.19571 13.7341 3.58615 13.9362 4.04296C14.1383 4.49978 14.1912 5.00245 14.0882 5.4874C13.9852 5.97235 13.7308 6.41781 13.3574 6.76744C12.9839 7.11707 12.5081 7.35517 11.9901 7.45164C11.4721 7.5481 10.9351 7.49859 10.4472 7.30937C9.9593 7.12015 9.54222 6.79972 9.2488 6.3886C8.95537 5.97748 8.79876 5.49413 8.79876 4.99967C8.79876 4.33663 9.0801 3.70075 9.58089 3.23191C10.0817 2.76306 10.7609 2.49967 11.4691 2.49967ZM3.45801 18.333V14.9997C3.45942 13.895 3.92878 12.836 4.76313 12.0548C5.59748 11.2738 6.72869 10.8343 7.90863 10.833H15.0296C16.2096 10.8343 17.3407 11.2738 18.1752 12.0548C19.0095 12.836 19.4788 13.895 19.4803 14.9997V18.333C19.4803 18.554 19.3864 18.766 19.2195 18.9223C19.0526 19.0785 18.8262 19.1663 18.5901 19.1663C18.3541 19.1663 18.1276 19.0785 17.9607 18.9223C17.7938 18.766 17.7 18.554 17.7 18.333V14.9997C17.7 14.3367 17.4186 13.7008 16.9179 13.2319C16.4171 12.7631 15.7378 12.4997 15.0296 12.4997H7.90863C7.2004 12.4997 6.52119 12.7631 6.02039 13.2319C5.5196 13.7008 5.23826 14.3367 5.23826 14.9997V18.333C5.23826 18.554 5.14447 18.766 4.97755 18.9223C4.81061 19.0785 4.58421 19.1663 4.34813 19.1663C4.11205 19.1663 3.88565 19.0785 3.71872 18.9223C3.55179 18.766 3.45801 18.554 3.45801 18.333Z" fill="white"/>
</svg>
